:version 1.10
:name ASF
:units
  mass 1
  length 1
  angle deg
:documentation
  ASF file generated by Kaydara
:root
  axis xyz
  order  tx ty tz rx ry rz
  position 0 0 0
  orientation 0 0 0
:bonedata
  begin
    id 1
    name RightUpLegDummy
    direction -0.65628 -0.754516 0.00165102
    length 4.76918
    axis 0 0 0 xyz
  end
  begin
    id 2
    name RightUpLeg
    direction -0.145584 -0.923362 0.355256
    length 17.9961
    axis -24.7611 -13.1006 1.78531 xyz
    dof rx ry rz
  end
  begin
    id 3
    name RightLeg
    direction 0.263379 0.172355 -0.949171
    length 13.3386
    axis 89.6202 -21.1929 12.3855 xyz
    dof rx ry rz
  end
  begin
    id 4
    name RightFoot
    direction 0.224283 -0.968777 -0.105675
    length 5.86697
    axis 56.995 -39.6905 17.3365 xyz
    dof rx ry rz
  end
  begin
    id 5
    name RightToes
    direction -0.0806345 -0.9037 0.420506
    length 4.75197
    axis 146.825 -39.7828 17.6019 xyz
    dof rx ry rz
  end
  begin
    id 6
    name SpineDummy
    direction -3.39852e-014 1 9.33296e-014
    length 8.13779
    axis 0 0 0 xyz
  end
  begin
    id 7
    name Spine
    direction -0.156609 0.733703 0.661176
    length 7.14978
    axis 41.2365 5.68757 17.0844 xyz
    dof rx ry rz
  end
  begin
    id 8
    name Spine1
    direction 0 0 0
    length 0
    axis 42.8809 47.8308 -3.36039 xyz
    dof rx ry rz
  end
  begin
    id 9
    name HEadDummy
    direction 0.546431 0.701947 0.456819
    length 3.55512
    axis 42.8809 47.8308 -3.36039 xyz
  end
  begin
    id 10
    name HEad
    direction 0.23444 0.828559 0.508457
    length 7.35827
    axis 51.1864 49.2662 27.4903 xyz
    dof rx ry rz
  end
  begin
    id 11
    name LeftShoulder1Dummy
    direction 0.431183 0.475873 -0.766568
    length 2.49352
    axis 42.8809 47.8308 -3.36039 xyz
  end
  begin
    id 12
    name LeftShoulder1
    direction 0.268187 -0.383402 -0.883786
    length 4.48604
    axis -119.517 0.106469 35.1736 xyz
    dof rx ry rz
  end
  begin
    id 13
    name LeftArm
    direction 0.380567 -0.703221 -0.600541
    length 10.1142
    axis -5.41825 36.2925 7.8293 xyz
    dof rx ry rz
  end
  begin
    id 14
    name LeftForeArm
    direction 0.541071 -0.732356 -0.413396
    length 9.39839
    axis 4.65387 33.7604 7.81644 xyz
    dof rx ry rz
  end
  begin
    id 15
    name LeftHand
    direction 0.847511 -0.389379 -0.360707
    length 3.66142
    axis 7.65593 21.1436 -24.6758 xyz
    dof rx ry rz
  end
  begin
    id 16
    name RightShoulderDummy
    direction -0.692546 0.541855 0.476208
    length 2.49352
    axis 42.8809 47.8308 -3.36039 xyz
  end
  begin
    id 17
    name RightShoulder
    direction -0.870808 -0.316653 0.376065
    length 4.48602
    axis 141.571 51.133 -100.254 xyz
    dof rx ry rz
  end
  begin
    id 18
    name RightArm
    direction 0.366897 -0.87275 0.322015
    length 10.1142
    axis 92.3258 71.2036 138.917 xyz
    dof rx ry rz
  end
  begin
    id 19
    name RightForeArm
    direction 0.702487 -0.694568 0.155197
    length 9.39835
    axis 153.863 41.5092 -176.604 xyz
    dof rx ry rz
  end
  begin
    id 20
    name RightHand
    direction 0.79502 -0.601276 0.0800636
    length 3.66142
    axis 154.247 4.59222 142.9 xyz
    dof rx ry rz
  end
  begin
    id 21
    name LeftUpLegDummy
    direction 0.65628 -0.754516 0.00165102
    length 4.76919
    axis 0 0 0 xyz
  end
  begin
    id 22
    name LeftUpLeg
    direction -0.1277 -0.689368 0.713067
    length 17.9961
    axis -48.3385 -17.8675 0.791927 xyz
    dof rx ry rz
  end
  begin
    id 23
    name LeftLeg
    direction 0.109849 -0.991246 -0.0732378
    length 13.3386
    axis -2.05791 -7.30784 1.72042 xyz
    dof rx ry rz
  end
  begin
    id 24
    name LeftFoot
    direction 0.0448355 -0.272614 0.961078
    length 5.86697
    axis -18.7733 -7.89606 10.2113 xyz
    dof rx ry rz
  end
  begin
    id 25
    name LeftToes
    direction -0.18506 0.293668 0.937823
    length 4.75197
    axis 71.2267 -7.89606 10.2113 xyz
    dof rx ry rz
  end
:hierarchy
  begin
    root RightUpLegDummy SpineDummy LeftUpLegDummy
    RightUpLegDummy RightUpLeg
    RightUpLeg RightLeg
    RightLeg RightFoot
    RightFoot RightToes
    SpineDummy Spine
    Spine Spine1
    Spine1 HEadDummy LeftShoulder1Dummy RightShoulderDummy
    HEadDummy HEad
    LeftShoulder1Dummy LeftShoulder1
    LeftShoulder1 LeftArm
    LeftArm LeftForeArm
    LeftForeArm LeftHand
    RightShoulderDummy RightShoulder
    RightShoulder RightArm
    RightArm RightForeArm
    RightForeArm RightHand
    LeftUpLegDummy LeftUpLeg
    LeftUpLeg LeftLeg
    LeftLeg LeftFoot
    LeftFoot LeftToes
  end

:SAMPLES-PER-SECOND 30
:FULLY-SPECIFIED
:DEGREES
1
root  4.56127 39.7036 5.41942 -176.945 -4.74091 177.093
RightUpLeg  18.4805 8.23185 0.869511
RightLeg  -104.403 -8.25538 7.08783
RightFoot  21.8037 5.57828 -17.258
RightToes  -1.27222e-014 -6.36111e-015 6.36111e-015
Spine  -52.7966 -13.6567 -11.4347
Spine1  11.6376 -9.43558 37.9425
HEad  7.15402 -17.3895 -14.0652
LeftShoulder1  6.36111e-015 -1.33558e-015 6.49777e-015
LeftArm  37.8599 -8.62788 -54.2123
LeftForeArm  -1.60144 -19.7839 -3.25833
LeftHand  -1.0848 -0.251752 -12.4535
RightShoulder  -4.77083e-015 -6.36111e-015 -3.18055e-015
RightArm  42.4252 -36.0029 2.16867
RightForeArm  -14.2816 -15.8979 -3.24965
RightHand  1.46649 -1.68347 -8.02202
LeftUpLeg  40.674 20.4574 18.5677
LeftLeg  -28.9954 -0.842363 -8.58463
LeftFoot  6.98848 2.61603 -7.2212
LeftToes  1.27222e-014 1.09105e-011 6.96064e-012
2
root  4.53628 39.7101 5.4373 -176.648 -5.02083 177.1
RightUpLeg  18.2218 8.21909 0.8521
RightLeg  -104.543 -8.11945 7.28337
RightFoot  21.9283 5.57652 -17.2726
RightToes  -1.27222e-014 -6.36111e-015 6.36111e-015
Spine  -52.4096 -13.74 -11.6089
Spine1  11.3782 -9.39071 38.0003
HEad  6.87045 -17.9028 -14.091
LeftShoulder1  6.36111e-015 -1.33558e-015 6.49777e-015
LeftArm  38.0761 -8.78982 -54.5143
LeftForeArm  -1.87496 -19.6984 -3.05108
LeftHand  -0.971002 0.0783628 -12.1477
RightShoulder  -4.77083e-015 -6.36111e-015 -3.18055e-015
RightArm  41.9581 -35.0399 4.19803
RightForeArm  -15.0296 -16.5141 -3.91343
RightHand  1.57675 -1.92936 -8.35566
LeftUpLeg  40.2427 20.4233 18.3961
LeftLeg  -28.979 -0.979088 -8.55874
LeftFoot  7.0681 2.58027 -7.10842
LeftToes  1.27222e-014 1.09105e-011 6.96064e-012
3
root  4.48099 39.7144 5.46268 -176.148 -5.56061 177.061
RightUpLeg  17.7723 8.14698 0.699821
RightLeg  -104.728 -7.86398 7.60015
RightFoot  22.0419 5.58929 -17.3073
RightToes  -1.27222e-014 -6.36111e-015 6.36111e-015
Spine  -51.7828 -13.793 -11.772
Spine1  10.9571 -9.30153 37.8936
HEad  6.49025 -18.5973 -14.0624
LeftShoulder1  6.36111e-015 -1.33558e-015 6.49777e-015
LeftArm  38.3945 -8.95566 -54.8896
LeftForeArm  -2.26767 -19.6578 -2.70152
LeftHand  -0.921338 0.236197 -12.068
RightShoulder  -4.77083e-015 -6.36111e-015 -3.18055e-015
RightArm  41.3878 -33.5946 6.83871
RightForeArm  -16.2656 -17.3436 -4.89935
RightHand  1.64706 -2.01911 -8.67353
LeftUpLeg  39.5106 20.4893 18.082
LeftLeg  -28.9544 -1.30407 -8.34615
LeftFoot  7.1639 2.53403 -6.96455
LeftToes  1.27222e-014 1.09105e-011 6.96064e-012
4
root  4.40169 39.7116 5.48757 -175.621 -6.29999 177.037
RightUpLeg  17.3216 8.12273 0.56393
RightLeg  -104.887 -7.58279 8.11377
RightFoot  22.0986 5.43374 -17.0831
RightToes  -1.27222e-014 -6.36111e-015 6.36111e-015
Spine  -51.008 -13.7557 -11.8217
Spine1  10.4487 -9.20949 37.7662
HEad  6.12899 -19.5043 -13.9601
LeftShoulder1  6.36111e-015 -1.33558e-015 6.49777e-015
LeftArm  38.4405 -8.89316 -55.0118
LeftForeArm  -2.49919 -19.7805 -2.40065
LeftHand  -0.977055 0.0665996 -12.1833
RightShoulder  -4.77083e-015 -6.36111e-015 -3.18055e-015
RightArm  40.8926 -32.5844 7.96035
RightForeArm  -16.9167 -16.9414 -5.77181
RightHand  1.61136 -1.89369 -8.64479
LeftUpLeg  38.6756 20.7982 17.8767
LeftLeg  -28.7594 -1.84117 -7.76467
LeftFoot  7.16308 2.46535 -6.77688
LeftToes  1.27222e-014 1.09105e-011 6.96064e-012
5
root  4.31173 39.7018 5.50818 -175.197 -7.07915 177.089
RightUpLeg  16.9777 8.17653 0.57537
RightLeg  -104.98 -7.38408 8.81413
RightFoot  22.1591 5.20568 -16.7521
RightToes  -1.27222e-014 -6.36111e-015 6.36111e-015
Spine  -50.0804 -13.5793 -11.769
Spine1  9.94983 -9.094 37.6521
HEad  5.75212 -20.4273 -13.8306
LeftShoulder1  6.36111e-015 -1.33558e-015 6.49777e-015
LeftArm  37.9297 -8.56859 -54.6793
LeftForeArm  -2.35206 -20.0318 -2.35456
LeftHand  -1.04422 -0.186299 -12.1578
RightShoulder  -4.77083e-015 -6.36111e-015 -3.18055e-015
RightArm  40.4679 -32.3005 7.2878
RightForeArm  -16.7016 -15.0367 -6.45134
RightHand  1.51579 -1.741 -8.25909
LeftUpLeg  37.8911 21.3278 17.9493
LeftLeg  -28.2768 -2.55936 -6.88636
LeftFoot  7.00389 2.38695 -6.58919
LeftToes  1.27222e-014 1.09105e-011 6.96064e-012
6
root  4.21262 39.687 5.52004 -174.8 -7.77046 177.129
RightUpLeg  16.6009 8.13547 0.522111
RightLeg  -104.973 -7.25877 9.42224
RightFoot  22.2069 5.15046 -16.6771
RightToes  -1.27222e-014 -6.36111e-015 6.36111e-015
Spine  -49.0243 -13.2543 -11.6817
Spine1  9.51582 -8.88382 37.3028
HEad  5.35903 -21.0529 -13.7708
LeftShoulder1  6.36111e-015 -1.33558e-015 6.49777e-015
LeftArm  36.9848 -8.05489 -53.9266
LeftForeArm  -1.84391 -20.3202 -2.60145
LeftHand  -1.06287 -0.345843 -11.8284
RightShoulder  -4.77083e-015 -6.36111e-015 -3.18055e-015
RightArm  40.182 -32.2063 6.25515
RightForeArm  -16.4758 -12.8572 -7.23629
RightHand  1.40683 -1.6238 -7.71615
LeftUpLeg  37.1275 21.8245 17.9721
LeftLeg  -27.7283 -3.23445 -6.0777
LeftFoot  6.78507 2.33358 -6.47879
LeftToes  1.27222e-014 1.09105e-011 6.96064e-012
7
root  4.09468 39.6658 5.5166 -174.287 -8.43346 177.068
RightUpLeg  16.0384 7.87379 0.17558
RightLeg  -104.814 -7.14096 9.70522
RightFoot  22.1213 5.11308 -16.6087
RightToes  -1.27222e-014 -6.36111e-015 6.36111e-015
Spine  -47.9979 -12.8399 -11.5439
Spine1  9.12221 -8.60465 36.6669
HEad  5.08007 -21.3414 -13.8502
LeftShoulder1  6.36111e-015 -1.33558e-015 6.49777e-015
LeftArm  36.1232 -7.37074 -53.0279
LeftForeArm  -1.34208 -20.5748 -2.87014
LeftHand  -1.08978 -0.528778 -11.5091
RightShoulder  -4.77083e-015 -6.36111e-015 -3.18055e-015
RightArm  39.9756 -32.1736 5.10117
RightForeArm  -16.6276 -10.6595 -8.12638
RightHand  1.22252 -1.2896 -6.99758
LeftUpLeg  36.2643 22.1887 17.6359
LeftLeg  -27.3208 -3.68889 -5.46143
LeftFoot  6.57961 2.29073 -6.39403
LeftToes  1.27222e-014 1.09105e-011 6.96064e-012
8
root  3.95761 39.6377 5.49751 -173.719 -9.19894 176.987
RightUpLeg  15.4298 7.54799 -0.270991
RightLeg  -104.547 -7.03287 9.8795
RightFoot  21.9383 4.81364 -16.1342
RightToes  -1.27222e-014 -6.36111e-015 6.36111e-015
Spine  -47.0355 -12.4408 -11.3227
Spine1  8.73489 -8.37942 36.0793
HEad  4.89327 -21.5672 -14.0065
LeftShoulder1  6.36111e-015 -1.33558e-015 6.49777e-015
LeftArm  35.9607 -6.70202 -52.4941
LeftForeArm  -1.40211 -20.6251 -2.75888
LeftHand  -1.15033 -0.726709 -11.5801
RightShoulder  -4.77083e-015 -6.36111e-015 -3.18055e-015
RightArm  39.7808 -32.2443 3.85406
RightForeArm  -17.0548 -8.3708 -9.16411
RightHand  0.922532 -0.617601 -5.96675
LeftUpLeg  35.3322 22.6422 17.2442
LeftLeg  -26.8557 -4.13192 -4.75612
LeftFoot  6.30324 2.20831 -6.20904
LeftToes  1.27222e-014 1.09105e-011 6.96064e-012
9
root  3.81525 39.607 5.46593 -173.295 -9.9984 176.954
RightUpLeg  15.0339 7.34823 -0.571899
RightLeg  -104.32 -6.9801 10.2691
RightFoot  21.8243 4.5162 -15.6716
RightToes  -1.27222e-014 -6.36111e-015 6.36111e-015
Spine  -45.9401 -12.1782 -11.1705
Spine1  8.44272 -8.23441 35.7277
HEad  4.51216 -21.9875 -14.0739
LeftShoulder1  6.36111e-015 -1.33558e-015 6.49777e-015
LeftArm  36.5703 -6.37696 -52.5779
LeftForeArm  -2.03291 -20.4458 -2.31118
LeftHand  -1.16616 -0.699541 -11.9022
RightShoulder  -4.77083e-015 -6.36111e-015 -3.18055e-015
RightArm  39.5713 -32.1371 2.88855
RightForeArm  -17.6026 -6.1304 -10.2797
RightHand  0.63727 0.0326333 -4.91419
LeftUpLeg  34.5469 23.2216 17.0772
LeftLeg  -26.1799 -4.75649 -3.92853
LeftFoot  5.91849 2.10351 -5.97472
LeftToes  1.27222e-014 1.09105e-011 6.96064e-012
10
root  3.66903 39.5733 5.41993 -173.016 -10.687 176.892
RightUpLeg  14.8059 7.09042 -0.91056
RightLeg  -104.136 -6.99022 10.6542
RightFoot  21.7208 4.52838 -15.6725
RightToes  -1.27222e-014 -6.36111e-015 6.36111e-015
Spine  -44.6726 -12.0235 -11.2151
Spine1  8.33594 -8.04727 35.4715
HEad  3.7889 -22.6468 -13.9469
LeftShoulder1  6.36111e-015 -1.33558e-015 6.49777e-015
LeftArm  37.5409 -6.51546 -53.072
LeftForeArm  -2.72416 -20.2011 -1.90662
LeftHand  -1.1123 -0.459845 -12.0671
RightShoulder  -4.77083e-015 -6.36111e-015 -3.18055e-015
RightArm  39.3224 -31.4 2.7127
RightForeArm  -18.2682 -4.4297 -11.2411
RightHand  0.530596 0.262894 -4.47381
LeftUpLeg  33.9501 23.5774 16.7442
LeftLeg  -25.5426 -5.23107 -3.29577
LeftFoot  5.49002 2.04602 -5.87733
LeftToes  1.27222e-014 1.09105e-011 6.96064e-012
11
root  3.50329 39.5069 5.36588 -172.624 -11.4359 176.812
RightUpLeg  14.2418 6.35535 -1.50539
RightLeg  -103.416 -7.22235 10.5713
RightFoot  21.1986 4.39621 -15.3844
RightToes  -1.27222e-014 -6.36111e-015 6.36111e-015
Spine  -43.4318 -11.8173 -11.2178
Spine1  8.24488 -7.82614 35.1721
HEad  2.96426 -23.5178 -13.6673
LeftShoulder1  6.36111e-015 -1.33558e-015 6.49777e-015
LeftArm  38.5495 -6.90887 -53.6398
LeftForeArm  -3.18266 -20.0415 -1.66797
LeftHand  -1.07495 -0.322102 -12.0733
RightShoulder  -4.77083e-015 -6.36111e-015 -3.18055e-015
RightArm  38.9814 -30.2841 3.10235
RightForeArm  -18.8841 -3.34743 -11.9324
RightHand  0.591026 0.187491 -4.81684
LeftUpLeg  33.0161 23.6751 15.9499
LeftLeg  -24.6677 -5.26727 -2.66903
LeftFoot  4.74484 2.03687 -5.9677
LeftToes  1.27222e-014 1.09105e-011 6.96064e-012
12
root  3.31065 39.3547 5.33038 -171.989 -12.59 177.056
RightUpLeg  12.8977 4.60109 -2.03425
RightLeg  -101.396 -8.17188 9.82311
RightFoot  19.9266 3.74402 -14.1519
RightToes  -1.27222e-014 -6.36111e-015 6.36111e-015
Spine  -42.2212 -11.2806 -10.6302
Spine1  7.75401 -7.74546 34.7791
HEad  2.23464 -24.6999 -13.2877
LeftShoulder1  6.36111e-015 -1.33558e-015 6.49777e-015
LeftArm  39.3745 -7.3007 -54.0286
LeftForeArm  -3.35658 -20.1215 -1.51686
LeftHand  -1.09597 -0.365144 -12.1949
RightShoulder  -4.77083e-015 -6.36111e-015 -3.18055e-015
RightArm  38.5514 -29.784 3.10279
RightForeArm  -19.1836 -2.31968 -12.536
RightHand  0.676742 0.185351 -5.47502
LeftUpLeg  30.9007 23.0759 14.7394
LeftLeg  -22.249 -4.66642 -2.06159
LeftFoot  3.05548 2.00899 -6.1635
LeftToes  1.27222e-014 1.09105e-011 6.96064e-012
13
root  3.09918 39.0591 5.32749 -171.385 -14.0045 177.842
RightUpLeg  10.7729 1.05531 -2.22258
RightLeg  -97.6358 -10.5642 7.97083
RightFoot  17.7525 3.19064 -12.8175
RightToes  -1.27222e-014 -6.36111e-015 6.36111e-015
Spine  -40.6515 -10.2954 -9.37004
Spine1  6.70707 -7.79877 34.1304
HEad  1.32175 -26.3336 -12.7109
LeftShoulder1  6.36111e-015 -1.33558e-015 6.49777e-015
LeftArm  39.6585 -7.58583 -54.0512
LeftForeArm  -3.21588 -20.4649 -1.4436
LeftHand  -1.10168 -0.36281 -12.2788
RightShoulder  -4.77083e-015 -6.36111e-015 -3.18055e-015
RightArm  38.3311 -30.3117 2.1446
RightForeArm  -19.3724 -1.18817 -13.1814
RightHand  0.733479 0.292149 -6.09951
LeftUpLeg  27.6097 21.1301 13.3467
LeftLeg  -17.4773 -3.35951 -1.96861
LeftFoot  0.197402 1.9303 -6.43077
LeftToes  1.27222e-014 1.09105e-011 6.96064e-012
14
root  2.87444 38.5885 5.32153 -171.147 -14.9996 178.548
RightUpLeg  8.47394 -0.067732 -1.71913
RightLeg  -92.5523 -12.9025 8.26772
RightFoot  14.5955 2.96018 -11.6702
RightToes  -1.27222e-014 -6.36111e-015 6.36111e-015
Spine  -38.4481 -9.50883 -8.48
Spine1  5.58659 -7.77146 33.1799
HEad  -0.210808 -28.288 -11.762
LeftShoulder1  6.36111e-015 -1.33558e-015 6.49777e-015
LeftArm  38.9166 -7.43579 -53.2821
LeftForeArm  -3.0274 -20.9988 -1.31209
LeftHand  -1.04644 -0.30063 -11.7771
RightShoulder  -4.77083e-015 -6.36111e-015 -3.18055e-015
RightArm  38.7068 -30.904 0.786959
RightForeArm  -19.9541 -0.791009 -13.5636
RightHand  0.82822 0.306285 -6.85823
LeftUpLeg  24.3889 19.5095 12.2838
LeftLeg  -11.4728 -2.13573 -1.55013
LeftFoot  -3.28358 1.80375 -6.70212
LeftToes  1.27222e-014 1.09105e-011 6.96064e-012
